{
    "asset" : {
        "generator" : "Khronos glTF Blender I/O v3.3.36",
        "version" : "2.0"
    },
    "scene" : 0,
    "scenes" : [
        {
            "name" : "Scene",
            "nodes" : [
                0
            ]
        }
    ],
    "nodes" : [
        {
            "mesh" : 0,
            "name" : "door_009_Mesh.112",
            "rotation" : [
                0.7071068286895752,
                0,
                0,
                0.7071067094802856
            ]
        }
    ],
    "meshes" : [
        {
            "name" : "door_009_Mesh.112",
            "primitives" : [
                {
                    "attributes" : {
                        "POSITION" : 0,
                        "NORMAL" : 1,
                        "TANGENT" : 2,
                        "TEXCOORD_0" : 3
                    },
                    "indices" : 4
                }
            ]
        }
    ],
    "accessors" : [
        {
            "bufferView" : 0,
            "componentType" : 5126,
            "count" : 300,
            "max" : [
                1.0473510026931763,
                2.4153330326080322,
                0.113646000623703
            ],
            "min" : [
                0,
                0,
                -0.11364399641752243
            ],
            "type" : "VEC3"
        },
        {
            "bufferView" : 1,
            "componentType" : 5126,
            "count" : 300,
            "type" : "VEC3"
        },
        {
            "bufferView" : 2,
            "componentType" : 5126,
            "count" : 300,
            "type" : "VEC4"
        },
        {
            "bufferView" : 3,
            "componentType" : 5126,
            "count" : 300,
            "type" : "VEC2"
        },
        {
            "bufferView" : 4,
            "componentType" : 5123,
            "count" : 528,
            "type" : "SCALAR"
        }
    ],
    "bufferViews" : [
        {
            "buffer" : 0,
            "byteLength" : 3600,
            "byteOffset" : 0,
            "target" : 34962
        },
        {
            "buffer" : 0,
            "byteLength" : 3600,
            "byteOffset" : 3600,
            "target" : 34962
        },
        {
            "buffer" : 0,
            "byteLength" : 4800,
            "byteOffset" : 7200,
            "target" : 34962
        },
        {
            "buffer" : 0,
            "byteLength" : 2400,
            "byteOffset" : 12000,
            "target" : 34962
        },
        {
            "buffer" : 0,
            "byteLength" : 1056,
            "byteOffset" : 14400,
            "target" : 34963
        }
    ],
    "buffers" : [
        {
            "byteLength" : 15456,
            "uri" : "data:application/octet-stream;base64,"
        }
    ]
}
