{
    "asset" : {
        "generator" : "Khronos glTF Blender I/O v3.3.36",
        "version" : "2.0"
    },
    "scene" : 0,
    "scenes" : [
        {
            "name" : "Scene",
            "nodes" : [
                0
            ]
        }
    ],
    "nodes" : [
        {
            "mesh" : 0,
            "name" : "bathroom_item_025_Mesh.6441",
            "rotation" : [
                0.7071068286895752,
                0,
                0,
                0.7071067094802856
            ]
        }
    ],
    "meshes" : [
        {
            "name" : "bathroom_item_025_Mesh.6441",
            "primitives" : [
                {
                    "attributes" : {
                        "POSITION" : 0,
                        "NORMAL" : 1,
                        "TANGENT" : 2,
                        "TEXCOORD_0" : 3
                    },
                    "indices" : 4
                }
            ]
        }
    ],
    "accessors" : [
        {
            "bufferView" : 0,
            "componentType" : 5126,
            "count" : 1209,
            "max" : [
                0.7575520277023315,
                1.0212390422821045,
                0.24049699306488037
            ],
            "min" : [
                -0.5698260068893433,
                0,
                -0.24049800634384155
            ],
            "type" : "VEC3"
        },
        {
            "bufferView" : 1,
            "componentType" : 5126,
            "count" : 1209,
            "type" : "VEC3"
        },
        {
            "bufferView" : 2,
            "componentType" : 5126,
            "count" : 1209,
            "type" : "VEC4"
        },
        {
            "bufferView" : 3,
            "componentType" : 5126,
            "count" : 1209,
            "type" : "VEC2"
        },
        {
            "bufferView" : 4,
            "componentType" : 5123,
            "count" : 2148,
            "type" : "SCALAR"
        }
    ],
    "bufferViews" : [
        {
            "buffer" : 0,
            "byteLength" : 14508,
            "byteOffset" : 0,
            "target" : 34962
        },
        {
            "buffer" : 0,
            "byteLength" : 14508,
            "byteOffset" : 14508,
            "target" : 34962
        },
        {
            "buffer" : 0,
            "byteLength" : 19344,
            "byteOffset" : 29016,
            "target" : 34962
        },
        {
            "buffer" : 0,
            "byteLength" : 9672,
            "byteOffset" : 48360,
            "target" : 34962
        },
        {
            "buffer" : 0,
            "byteLength" : 4296,
            "byteOffset" : 58032,
            "target" : 34963
        }
    ],
    "buffers" : [
        {
            "byteLength" : 62328,
            "uri" : "data:application/octet-stream;base64,"
        }
    ]
}
