{
    "asset" : {
        "generator" : "Khronos glTF Blender I/O v3.3.36",
        "version" : "2.0"
    },
    "scene" : 0,
    "scenes" : [
        {
            "name" : "Scene",
            "nodes" : [
                0
            ]
        }
    ],
    "nodes" : [
        {
            "mesh" : 0,
            "name" : "closet_003_Mesh.055",
            "rotation" : [
                0.7071068286895752,
                0,
                0,
                0.7071067094802856
            ]
        }
    ],
    "meshes" : [
        {
            "name" : "closet_003_Mesh.055",
            "primitives" : [
                {
                    "attributes" : {
                        "POSITION" : 0,
                        "NORMAL" : 1,
                        "TANGENT" : 2,
                        "TEXCOORD_0" : 3
                    },
                    "indices" : 4
                }
            ]
        }
    ],
    "accessors" : [
        {
            "bufferView" : 0,
            "componentType" : 5126,
            "count" : 404,
            "max" : [
                0.9285809993743896,
                2.1292760372161865,
                0.48888298869132996
            ],
            "min" : [
                -0.9285759925842285,
                0,
                -0.5500869750976562
            ],
            "type" : "VEC3"
        },
        {
            "bufferView" : 1,
            "componentType" : 5126,
            "count" : 404,
            "type" : "VEC3"
        },
        {
            "bufferView" : 2,
            "componentType" : 5126,
            "count" : 404,
            "type" : "VEC4"
        },
        {
            "bufferView" : 3,
            "componentType" : 5126,
            "count" : 404,
            "type" : "VEC2"
        },
        {
            "bufferView" : 4,
            "componentType" : 5123,
            "count" : 786,
            "type" : "SCALAR"
        }
    ],
    "bufferViews" : [
        {
            "buffer" : 0,
            "byteLength" : 4848,
            "byteOffset" : 0,
            "target" : 34962
        },
        {
            "buffer" : 0,
            "byteLength" : 4848,
            "byteOffset" : 4848,
            "target" : 34962
        },
        {
            "buffer" : 0,
            "byteLength" : 6464,
            "byteOffset" : 9696,
            "target" : 34962
        },
        {
            "buffer" : 0,
            "byteLength" : 3232,
            "byteOffset" : 16160,
            "target" : 34962
        },
        {
            "buffer" : 0,
            "byteLength" : 1572,
            "byteOffset" : 19392,
            "target" : 34963
        }
    ],
    "buffers" : [
        {
            "byteLength" : 20964,
            "uri" : "data:application/octet-stream;base64,"
        }
    ]
}
