{
    "asset" : {
        "generator" : "Khronos glTF Blender I/O v3.3.36",
        "version" : "2.0"
    },
    "scene" : 0,
    "scenes" : [
        {
            "name" : "Scene",
            "nodes" : [
                0
            ]
        }
    ],
    "nodes" : [
        {
            "mesh" : 0,
            "name" : "office_table_024_Mesh.395",
            "rotation" : [
                0.7071068286895752,
                0,
                0,
                0.7071067094802856
            ]
        }
    ],
    "meshes" : [
        {
            "name" : "office_table_024_Mesh.395",
            "primitives" : [
                {
                    "attributes" : {
                        "POSITION" : 0,
                        "NORMAL" : 1,
                        "TANGENT" : 2,
                        "TEXCOORD_0" : 3
                    },
                    "indices" : 4
                }
            ]
        }
    ],
    "accessors" : [
        {
            "bufferView" : 0,
            "componentType" : 5126,
            "count" : 224,
            "max" : [
                0.702709972858429,
                0.8511859774589539,
                0.3378100097179413
            ],
            "min" : [
                -0.7027199864387512,
                0,
                -0.3378100097179413
            ],
            "type" : "VEC3"
        },
        {
            "bufferView" : 1,
            "componentType" : 5126,
            "count" : 224,
            "type" : "VEC3"
        },
        {
            "bufferView" : 2,
            "componentType" : 5126,
            "count" : 224,
            "type" : "VEC4"
        },
        {
            "bufferView" : 3,
            "componentType" : 5126,
            "count" : 224,
            "type" : "VEC2"
        },
        {
            "bufferView" : 4,
            "componentType" : 5123,
            "count" : 336,
            "type" : "SCALAR"
        }
    ],
    "bufferViews" : [
        {
            "buffer" : 0,
            "byteLength" : 2688,
            "byteOffset" : 0,
            "target" : 34962
        },
        {
            "buffer" : 0,
            "byteLength" : 2688,
            "byteOffset" : 2688,
            "target" : 34962
        },
        {
            "buffer" : 0,
            "byteLength" : 3584,
            "byteOffset" : 5376,
            "target" : 34962
        },
        {
            "buffer" : 0,
            "byteLength" : 1792,
            "byteOffset" : 8960,
            "target" : 34962
        },
        {
            "buffer" : 0,
            "byteLength" : 672,
            "byteOffset" : 10752,
            "target" : 34963
        }
    ],
    "buffers" : [
        {
            "byteLength" : 11424,
            "uri" : "data:application/octet-stream;base64,"
        }
    ]
}
