{
    "asset" : {
        "generator" : "Khronos glTF Blender I/O v3.3.36",
        "version" : "2.0"
    },
    "scene" : 0,
    "scenes" : [
        {
            "name" : "Scene",
            "nodes" : [
                0
            ]
        }
    ],
    "nodes" : [
        {
            "mesh" : 0,
            "name" : "warehouse_004_Mesh.683",
            "rotation" : [
                0.7071068286895752,
                0,
                0,
                0.7071067094802856
            ]
        }
    ],
    "meshes" : [
        {
            "name" : "warehouse_004_Mesh.683",
            "primitives" : [
                {
                    "attributes" : {
                        "POSITION" : 0,
                        "NORMAL" : 1,
                        "TANGENT" : 2,
                        "TEXCOORD_0" : 3
                    },
                    "indices" : 4
                }
            ]
        }
    ],
    "accessors" : [
        {
            "bufferView" : 0,
            "componentType" : 5126,
            "count" : 928,
            "max" : [
                0.47486400604248047,
                1.163262963294983,
                0.866362988948822
            ],
            "min" : [
                -0.4750019907951355,
                -0.026020999997854233,
                -0.528473973274231
            ],
            "type" : "VEC3"
        },
        {
            "bufferView" : 1,
            "componentType" : 5126,
            "count" : 928,
            "type" : "VEC3"
        },
        {
            "bufferView" : 2,
            "componentType" : 5126,
            "count" : 928,
            "type" : "VEC4"
        },
        {
            "bufferView" : 3,
            "componentType" : 5126,
            "count" : 928,
            "type" : "VEC2"
        },
        {
            "bufferView" : 4,
            "componentType" : 5123,
            "count" : 1578,
            "type" : "SCALAR"
        }
    ],
    "bufferViews" : [
        {
            "buffer" : 0,
            "byteLength" : 11136,
            "byteOffset" : 0,
            "target" : 34962
        },
        {
            "buffer" : 0,
            "byteLength" : 11136,
            "byteOffset" : 11136,
            "target" : 34962
        },
        {
            "buffer" : 0,
            "byteLength" : 14848,
            "byteOffset" : 22272,
            "target" : 34962
        },
        {
            "buffer" : 0,
            "byteLength" : 7424,
            "byteOffset" : 37120,
            "target" : 34962
        },
        {
            "buffer" : 0,
            "byteLength" : 3156,
            "byteOffset" : 44544,
            "target" : 34963
        }
    ],
    "buffers" : [
        {
            "byteLength" : 47700,
            "uri" : "data:application/octet-stream;base64,"
        }
    ]
}
